<svg xmlns="http://www.w3.org/2000/svg" viewBox="0 0 100 100">
  <defs>
    <linearGradient id="fg" x1="0%" y1="0%" x2="100%" y2="100%">
      <stop offset="0%" style="stop-color:#F59E0B"/>
      <stop offset="100%" style="stop-color:#EF4444"/>
    </linearGradient>
  </defs>
  <!-- Alev -->
  <path d="M50 85 Q25 70 28 50 Q30 35 40 28 Q35 40 45 38 Q38 25 50 15 Q48 30 55 32 Q65 20 62 35 Q72 32 70 48 Q72 65 50 85Z" fill="url(#fg)"/>
  <!-- İç parlaklık -->
  <path d="M50 75 Q35 62 38 50 Q42 40 48 38 Q45 46 52 46 Q58 38 56 50 Q60 62 50 75Z" fill="#FBBF24" opacity="0.7"/>
  <path d="M50 65 Q42 57 44 50 Q47 44 50 45 Q53 50 50 65Z" fill="white" opacity="0.5"/>
</svg>
