<svg xmlns="http://www.w3.org/2000/svg" viewBox="0 0 100 100">
  <defs>
    <linearGradient id="nag" x1="0%" y1="0%" x2="100%" y2="100%">
      <stop offset="0%" style="stop-color:#EF4444"/>
      <stop offset="100%" style="stop-color:#F59E0B"/>
    </linearGradient>
  </defs>
  <!-- Arka plan dalga -->
  <ellipse cx="50" cy="85" rx="40" ry="8" fill="#EF4444" opacity="0.15"/>
  <!-- Gemi gövdesi -->
  <path d="M15 68 Q50 80 85 68 L80 75 Q50 88 20 75 Z" fill="#1E3A8A" opacity="0.8"/>
  <path d="M20 68 L25 50 L75 50 L80 68 Q50 78 20 68Z" fill="#1E3A8A"/>
  <!-- Üst yapı (köprü) -->
  <rect x="38" y="38" width="24" height="14" rx="3" fill="#2563EB"/>
  <rect x="42" y="32" width="16" height="8" rx="2" fill="#3B82F6"/>
  <!-- Anten direkler -->
  <line x1="50" y1="32" x2="50" y2="15" stroke="#94A3B8" stroke-width="2" stroke-linecap="round"/>
  <line x1="50" y1="15" x2="38" y2="22" stroke="#94A3B8" stroke-width="1.5" stroke-linecap="round"/>
  <line x1="50" y1="15" x2="62" y2="22" stroke="#94A3B8" stroke-width="1.5" stroke-linecap="round"/>
  <!-- Mayday kırmızı bayrak -->
  <rect x="50" y="15" width="12" height="8" rx="1" fill="url(#nag)"/>
  <!-- Pencereler -->
  <circle cx="42" cy="57" r="3" fill="#60A5FA" opacity="0.8"/>
  <circle cx="50" cy="57" r="3" fill="#60A5FA" opacity="0.8"/>
  <circle cx="58" cy="57" r="3" fill="#60A5FA" opacity="0.8"/>
  <!-- Dalgalar -->
  <path d="M8 72 Q15 68 22 72 Q29 76 36 72" fill="none" stroke="#60A5FA" stroke-width="2" stroke-linecap="round" opacity="0.6"/>
  <path d="M64 72 Q71 68 78 72 Q85 76 92 72" fill="none" stroke="#60A5FA" stroke-width="2" stroke-linecap="round" opacity="0.6"/>
</svg>
