<svg xmlns="http://www.w3.org/2000/svg" viewBox="0 0 100 100">
  <defs>
    <linearGradient id="mg2" x1="0%" y1="0%" x2="100%" y2="100%">
      <stop offset="0%" style="stop-color:#8B5CF6"/>
      <stop offset="100%" style="stop-color:#06B6D4"/>
    </linearGradient>
  </defs>
  <!-- Mors kodu noktaları -->
  <!-- .- (Alpha) -->
  <circle cx="18" cy="30" r="5" fill="url(#mg2)"/>
  <rect x="28" y="26" width="14" height="8" rx="4" fill="url(#mg2)"/>
  <!-- -... (Bravo) -->
  <rect x="10" y="44" width="14" height="8" rx="4" fill="url(#mg2)"/>
  <circle cx="32" cy="48" r="5" fill="url(#mg2)"/>
  <circle cx="44" cy="48" r="5" fill="url(#mg2)"/>
  <circle cx="56" cy="48" r="5" fill="url(#mg2)"/>
  <!-- -.-. (Charlie) -->
  <rect x="10" y="62" width="12" height="8" rx="4" fill="url(#mg2)"/>
  <circle cx="28" cy="66" r="5" fill="url(#mg2)"/>
  <rect x="36" y="62" width="12" height="8" rx="4" fill="url(#mg2)"/>
  <circle cx="54" cy="66" r="5" fill="url(#mg2)"/>
  <!-- Sinyaller sağ tarafta -->
  <path d="M72 25 Q80 20 88 25 Q80 30 72 25" fill="url(#mg2)" opacity="0.7"/>
  <path d="M72 45 Q82 40 92 45 Q82 50 72 45" fill="url(#mg2)" opacity="0.5"/>
  <path d="M72 65 Q80 60 88 65 Q80 70 72 65" fill="url(#mg2)" opacity="0.7"/>
  <!-- Zaman ekseni çizgisi -->
  <line x1="8" y1="82" x2="92" y2="82" stroke="#334155" stroke-width="1.5" opacity="0.6"/>
  <text x="50" y="95" font-family="monospace" font-size="8" text-anchor="middle" fill="#64748B">.- ⚡ -... ⚡ -.-.</text>
</svg>
